<?xml version="1.0" standalone="no"?>
<!DOCTYPE svg PUBLIC "-//W3C//DTD SVG 20010904//EN"
 "http://www.w3.org/TR/2001/REC-SVG-20010904/DTD/svg10.dtd">
<svg version="1.0" xmlns="http://www.w3.org/2000/svg"
 width="512.000000pt" height="512.000000pt" viewBox="0 0 512.000000 512.000000"
 preserveAspectRatio="xMidYMid meet">
<metadata>
Created by potrace 1.14, written by Peter Selinger 2001-2017
</metadata>
<g transform="translate(0.000000,512.000000) scale(0.100000,-0.100000)"
fill="#000000" stroke="none">
<path d="M5098 5115 c-4 -4 -389 -139 -543 -191 -52 -17 -181 -61 -490 -169
-137 -48 -342 -119 -455 -157 -113 -39 -227 -79 -255 -89 -50 -17 -529 -183
-635 -219 -198 -68 -282 -97 -505 -175 -137 -48 -320 -111 -405 -140 -85 -29
-220 -76 -300 -105 -80 -28 -152 -53 -160 -55 -8 -1 -55 -17 -105 -35 -49 -17
-101 -35 -115 -40 -14 -4 -122 -42 -240 -83 -118 -41 -341 -118 -495 -171
-154 -53 -306 -106 -337 -117 l-56 -21 166 -85 c92 -47 282 -144 422 -215 140
-72 336 -172 435 -223 237 -122 548 -281 880 -450 149 -76 276 -142 282 -147
7 -6 19 -8 27 -5 10 4 13 1 9 -9 -3 -8 -1 -20 5 -27 5 -6 82 -156 172 -332
245 -482 350 -687 372 -722 11 -18 16 -33 13 -33 -4 0 -3 -6 3 -13 12 -14 50
-87 492 -954 35 -68 66 -123 69 -123 3 1 34 83 68 183 33 100 102 301 153 447
50 146 136 393 190 550 54 157 135 391 180 520 45 129 105 305 135 390 29 85
89 259 133 385 146 420 211 607 267 770 13 39 60 176 105 305 45 129 85 246
90 260 5 14 47 138 95 275 48 138 120 345 160 460 40 116 91 264 114 330 24
66 44 125 45 130 4 12 14 42 26 72 8 20 0 39 -12 28z"/>
</g>
</svg>
